<svg width="10" height="14" viewBox="0 0 10 14" fill="none" xmlns="http://www.w3.org/2000/svg">
<path fill-rule="evenodd" clip-rule="evenodd" d="M9.39604 9.36734C9.39604 11.6981 7.49948 13.5875 5.15994 13.5875C2.82039 13.5875 0.923828 11.6981 0.923828 9.36734C0.923828 7.10051 4.9308 0.874843 5.15055 0.535107C5.15558 0.52736 5.16432 0.52736 5.16932 0.535107C5.38908 0.874843 9.39604 7.10051 9.39604 9.36734ZM4.45379 12.2346C2.30419 11.7642 2.67203 9.38303 2.67203 9.38303C2.67203 9.38303 3.25901 10.8205 4.68347 11.2861C6.1079 11.7517 7.82932 11.0688 7.82932 11.0688C7.82932 11.0688 6.60339 12.7049 4.45379 12.2346Z" fill="#5090D6"/>
</svg>
