<svg width="31" height="32" viewBox="0 0 24 25" fill="none" xmlns="http://www.w3.org/2000/svg">
<path d="M9 10.3253C9 10.4579 9.05268 10.5851 9.14645 10.6789C9.24021 10.7726 9.36739 10.8253 9.5 10.8253C9.63261 10.8253 9.75979 10.7726 9.85355 10.6789C9.94732 10.5851 10 10.4579 10 10.3253V9.32532C10 9.19271 9.94732 9.06553 9.85355 8.97176C9.75979 8.878 9.63261 8.82532 9.5 8.82532C9.36739 8.82532 9.24021 8.878 9.14645 8.97176C9.05268 9.06553 9 9.19271 9 9.32532V10.3253ZM9 10.3253C9 11.6514 9.52678 12.9232 10.4645 13.8609C11.4021 14.7985 12.6739 15.3253 14 15.3253M14 15.3253H15C15.1326 15.3253 15.2598 15.2726 15.3536 15.1789C15.4473 15.0851 15.5 14.9579 15.5 14.8253C15.5 14.6927 15.4473 14.5655 15.3536 14.4718C15.2598 14.378 15.1326 14.3253 15 14.3253H14C13.8674 14.3253 13.7402 14.378 13.6464 14.4718C13.5527 14.5655 13.5 14.6927 13.5 14.8253C13.5 14.9579 13.5527 15.0851 13.6464 15.1789C13.7402 15.2726 13.8674 15.3253 14 15.3253ZM3 21.3253L4.65 17.5253C3.38766 15.7333 2.82267 13.5423 3.06104 11.3634C3.29942 9.18446 4.32479 7.16743 5.94471 5.69081C7.56463 4.21419 9.66775 3.3795 11.8594 3.34339C14.051 3.30727 16.1805 4.07221 17.8482 5.49466C19.5159 6.9171 20.6071 8.89926 20.9172 11.0692C21.2272 13.239 20.7347 15.4475 19.5321 17.2801C18.3295 19.1126 16.4994 20.4433 14.3854 21.0224C12.2713 21.6015 10.0186 21.3892 8.05 20.4253L3 21.3253Z" stroke="#171938" stroke-width="2" stroke-linecap="round" stroke-linejoin="round"/>
</svg>
