<svg width="11" height="14" viewBox="0 0 11 14" fill="none" xmlns="http://www.w3.org/2000/svg">
<path fill-rule="evenodd" clip-rule="evenodd" d="M7.61291 10.614C7.77426 10.0241 7.46108 8.81119 7.46108 8.81119C7.46108 8.81119 7.23393 9.79925 6.87899 10.1644C6.57619 10.4759 6.20521 10.692 5.67317 10.7488C6.10816 10.5375 6.40732 10.0969 6.40732 9.58771C6.40732 8.87289 5.81784 8.2934 5.09067 8.2934C4.36351 8.2934 3.774 8.87289 3.774 9.58771C3.774 9.78293 3.818 9.96807 3.89674 10.1341C3.44192 9.77173 3.3704 9.19081 3.3704 9.19081C3.3704 9.19081 2.86254 11.2994 4.26192 12.2912C5.66128 13.2831 8.40259 12.4305 8.40259 12.4305C8.40259 12.4305 4.47961 15.1908 1.57265 12.1866C-0.931464 9.59865 0.919071 6.1916 0.919071 6.1916C0.919071 6.1916 0.839152 6.50766 0.839152 6.87456C0.839152 7.24145 1.03808 7.52061 1.03808 7.52061C1.03808 7.52061 1.63146 6.26985 2.09327 5.76119C2.53033 5.2798 3.07821 4.88936 3.55144 4.55213C3.91571 4.29253 4.23575 4.06446 4.42689 3.8507C5.47968 2.67351 4.83416 0.529297 4.83416 0.529297C4.83416 0.529297 6.02094 1.57553 6.35225 2.92676C6.47856 3.44182 6.3973 4.02786 6.32466 4.55192C6.20672 5.40269 6.1114 6.09014 6.96342 6.04553C8.34025 5.97342 7.14382 3.8507 7.14382 3.8507C7.14382 3.8507 10.267 5.49224 10.0337 8.36319C9.80034 11.2341 6.61988 11.8868 6.61988 11.8868C6.61988 11.8868 7.45154 11.204 7.61291 10.614Z" fill="#FF9D55"/>
</svg>
