<svg width="14" height="10" viewBox="0 0 14 10" fill="none" xmlns="http://www.w3.org/2000/svg">
<path fill-rule="evenodd" clip-rule="evenodd" d="M3.50403 9.74546C3.50049 9.74546 3.49801 9.74197 3.49919 9.73863L6.83314 0.318115C6.83388 0.316067 6.83582 0.314697 6.83799 0.314697L10.3971 0.314697C10.3992 0.314697 10.4012 0.316077 10.4019 0.318138L13.6864 9.73865C13.6876 9.74199 13.6851 9.74546 13.6816 9.74546H3.60422H3.50403ZM0.633064 9.78232C0.629483 9.78232 0.627004 9.77875 0.62826 9.77541L3.11096 3.14724C3.11171 3.14522 3.11362 3.1439 3.11576 3.1439H5.27294C5.27651 3.1439 5.27899 3.14744 5.27776 3.15078L2.87706 9.77895C2.87633 9.78097 2.8744 9.78232 2.87224 9.78232H0.633064Z" fill="#D97845"/>
</svg>
